<svg width="512" height="512" viewBox="0 0 512 512" fill="none" xmlns="http://www.w3.org/2000/svg">
<circle cx="256" cy="256" r="256" fill="#99E600"/>
<path d="M409 208.75V382.583C409 385.876 407.692 389.035 405.363 391.363C403.035 393.692 399.876 395 396.583 395C393.29 395 390.132 393.692 387.803 391.363C385.475 389.035 384.167 385.876 384.167 382.583V208.75C384.142 185.706 374.977 163.613 358.682 147.318C342.387 131.023 320.294 121.858 297.25 121.833H222.75C199.706 121.858 177.613 131.023 161.318 147.318C145.023 163.613 135.858 185.706 135.833 208.75V382.583C135.833 385.876 134.525 389.035 132.197 391.363C129.868 393.692 126.71 395 123.417 395C120.124 395 116.965 393.692 114.637 391.363C112.308 389.035 111 385.876 111 382.583V208.75C111.033 179.122 122.817 150.717 143.767 129.767C164.717 108.817 193.122 97.0329 222.75 97H297.25C326.878 97.0329 355.283 108.817 376.233 129.767C397.183 150.717 408.967 179.122 409 208.75ZM346.917 208.75V320.5C346.915 329.11 343.932 337.453 338.474 344.111C333.015 350.769 325.419 355.331 316.977 357.021L320.78 364.61C321.509 366.07 321.944 367.658 322.06 369.286C322.176 370.913 321.97 372.548 321.454 374.096C320.938 375.644 320.122 377.075 319.053 378.307C317.984 379.54 316.683 380.55 315.223 381.28C313.764 382.009 312.175 382.444 310.547 382.56C308.92 382.676 307.286 382.47 305.738 381.954C304.19 381.438 302.759 380.622 301.526 379.553C300.293 378.484 299.283 377.183 298.554 375.723L289.583 357.75H230.417L221.446 375.723C219.973 378.67 217.388 380.912 214.262 381.954C211.136 382.996 207.724 382.753 204.777 381.28C201.83 379.806 199.588 377.222 198.546 374.096C197.504 370.97 197.747 367.558 199.22 364.61L203.023 357.021C194.581 355.331 186.985 350.769 181.526 344.111C176.068 337.453 173.085 329.11 173.083 320.5V208.75C173.083 198.871 177.008 189.396 183.994 182.41C190.979 175.425 200.454 171.5 210.333 171.5H309.667C319.546 171.5 329.021 175.425 336.006 182.41C342.992 189.396 346.917 198.871 346.917 208.75ZM197.917 208.75V283.25H322.083V208.75C322.083 205.457 320.775 202.299 318.447 199.97C316.118 197.642 312.96 196.333 309.667 196.333H210.333C207.04 196.333 203.882 197.642 201.553 199.97C199.225 202.299 197.917 205.457 197.917 208.75ZM247.583 308.083V332.917H272.417V308.083H247.583ZM210.333 332.917H222.75V308.083H197.917V320.5C197.917 323.793 199.225 326.951 201.553 329.28C203.882 331.609 207.04 332.917 210.333 332.917ZM322.083 320.5V308.083H297.25V332.917H309.667C312.96 332.917 316.118 331.609 318.447 329.28C320.775 326.951 322.083 323.793 322.083 320.5Z" fill="black"/>
</svg>
